<mxfile host="app.diagrams.net" modified="2021-08-14T10:08:03.407Z" agent="5.0 (Windows)" etag="V2R4X-pzNPebu1u2scSL" version="14.9.6" type="github">
  <diagram id="9wXMxh1VM7HO3iqphDn7" name="Page-1">
    <mxGraphModel dx="1422" dy="905" grid="1" gridSize="10" guides="1" tooltips="1" connect="1" arrows="1" fold="1" page="1" pageScale="1" pageWidth="1169" pageHeight="827" background="#FFF2CC" math="0" shadow="0">
      <root>
        <mxCell id="0" />
        <mxCell id="1" parent="0" />
        <mxCell id="aq_8hHZu7omb50Sgb_1N-21" value="" style="rounded=0;whiteSpace=wrap;html=1;fontFamily=Lucida Console;fontSize=14;" vertex="1" parent="1">
          <mxGeometry x="320" y="280" width="280" height="200" as="geometry" />
        </mxCell>
        <mxCell id="aq_8hHZu7omb50Sgb_1N-3" value="" style="shape=cylinder3;whiteSpace=wrap;html=1;boundedLbl=1;backgroundOutline=1;size=15;fontSize=14;" vertex="1" parent="1">
          <mxGeometry x="80" y="320" width="80" height="120" as="geometry" />
        </mxCell>
        <mxCell id="aq_8hHZu7omb50Sgb_1N-4" value="Datasets" style="text;html=1;strokeColor=none;fillColor=none;align=center;verticalAlign=middle;whiteSpace=wrap;rounded=0;fontFamily=Lucida Console;fontSize=14;" vertex="1" parent="1">
          <mxGeometry x="80" y="367" width="80" height="40" as="geometry" />
        </mxCell>
        <mxCell id="aq_8hHZu7omb50Sgb_1N-5" value="" style="rounded=1;whiteSpace=wrap;html=1;fontFamily=Lucida Console;fontSize=14;" vertex="1" parent="1">
          <mxGeometry x="400" y="303" width="120" height="60" as="geometry" />
        </mxCell>
        <mxCell id="aq_8hHZu7omb50Sgb_1N-6" value="" style="rounded=1;whiteSpace=wrap;html=1;fontFamily=Lucida Console;fontSize=14;" vertex="1" parent="1">
          <mxGeometry x="400" y="383" width="120" height="60" as="geometry" />
        </mxCell>
        <mxCell id="aq_8hHZu7omb50Sgb_1N-7" value="NN_traj" style="text;html=1;strokeColor=none;fillColor=none;align=center;verticalAlign=middle;whiteSpace=wrap;rounded=0;fontFamily=Lucida Console;fontSize=14;" vertex="1" parent="1">
          <mxGeometry x="420" y="313" width="80" height="40" as="geometry" />
        </mxCell>
        <mxCell id="aq_8hHZu7omb50Sgb_1N-8" value="NN_pose" style="text;html=1;strokeColor=none;fillColor=none;align=center;verticalAlign=middle;whiteSpace=wrap;rounded=0;fontFamily=Lucida Console;fontSize=14;" vertex="1" parent="1">
          <mxGeometry x="420" y="393" width="80" height="40" as="geometry" />
        </mxCell>
        <mxCell id="aq_8hHZu7omb50Sgb_1N-10" value="Neuron Network" style="text;html=1;strokeColor=none;fillColor=none;align=center;verticalAlign=middle;whiteSpace=wrap;rounded=0;fontFamily=Lucida Console;fontSize=14;" vertex="1" parent="1">
          <mxGeometry x="375" y="240" width="170" height="40" as="geometry" />
        </mxCell>
        <mxCell id="aq_8hHZu7omb50Sgb_1N-13" value="" style="endArrow=classic;html=1;fontFamily=Lucida Console;entryX=0;entryY=0.5;entryDx=0;entryDy=0;fontSize=14;" edge="1" parent="1">
          <mxGeometry width="50" height="50" relative="1" as="geometry">
            <mxPoint x="180" y="380" as="sourcePoint" />
            <mxPoint x="320" y="380" as="targetPoint" />
          </mxGeometry>
        </mxCell>
        <mxCell id="aq_8hHZu7omb50Sgb_1N-14" value="Input" style="text;html=1;strokeColor=none;fillColor=none;align=center;verticalAlign=middle;whiteSpace=wrap;rounded=0;fontFamily=Lucida Console;fontSize=14;" vertex="1" parent="1">
          <mxGeometry x="200" y="343" width="80" height="40" as="geometry" />
        </mxCell>
        <mxCell id="aq_8hHZu7omb50Sgb_1N-15" value="" style="endArrow=classic;html=1;fontFamily=Lucida Console;entryX=0;entryY=0.5;entryDx=0;entryDy=0;fontSize=14;" edge="1" parent="1">
          <mxGeometry width="50" height="50" relative="1" as="geometry">
            <mxPoint x="600" y="379.58" as="sourcePoint" />
            <mxPoint x="740" y="379.58" as="targetPoint" />
          </mxGeometry>
        </mxCell>
        <mxCell id="aq_8hHZu7omb50Sgb_1N-16" value="Output" style="text;html=1;strokeColor=none;fillColor=none;align=center;verticalAlign=middle;whiteSpace=wrap;rounded=0;fontFamily=Lucida Console;fontSize=14;" vertex="1" parent="1">
          <mxGeometry x="630" y="343" width="80" height="40" as="geometry" />
        </mxCell>
        <mxCell id="aq_8hHZu7omb50Sgb_1N-22" value="" style="rounded=1;whiteSpace=wrap;html=1;fontFamily=Lucida Console;fontSize=14;" vertex="1" parent="1">
          <mxGeometry x="760" y="280" width="160" height="200" as="geometry" />
        </mxCell>
        <mxCell id="aq_8hHZu7omb50Sgb_1N-23" value="Losses" style="text;html=1;strokeColor=none;fillColor=none;align=center;verticalAlign=middle;whiteSpace=wrap;rounded=0;fontFamily=Lucida Console;fontSize=14;" vertex="1" parent="1">
          <mxGeometry x="755" y="240" width="170" height="40" as="geometry" />
        </mxCell>
        <mxCell id="aq_8hHZu7omb50Sgb_1N-24" value="对照项" style="rounded=1;whiteSpace=wrap;html=1;fontFamily=Lucida Console;fontSize=14;" vertex="1" parent="1">
          <mxGeometry x="785" y="293" width="110" height="20" as="geometry" />
        </mxCell>
        <mxCell id="aq_8hHZu7omb50Sgb_1N-25" value="鉴别项" style="rounded=1;whiteSpace=wrap;html=1;fontFamily=Lucida Console;fontSize=14;" vertex="1" parent="1">
          <mxGeometry x="785" y="450" width="110" height="20" as="geometry" />
        </mxCell>
        <mxCell id="aq_8hHZu7omb50Sgb_1N-26" value="" style="curved=1;endArrow=classic;html=1;fontFamily=Lucida Console;fontSize=14;" edge="1" parent="1">
          <mxGeometry width="50" height="50" relative="1" as="geometry">
            <mxPoint x="180" y="350" as="sourcePoint" />
            <mxPoint x="790" y="280" as="targetPoint" />
            <Array as="points">
              <mxPoint x="250" y="170" />
              <mxPoint x="400" y="110" />
              <mxPoint x="590" y="110" />
              <mxPoint x="740" y="200" />
            </Array>
          </mxGeometry>
        </mxCell>
        <mxCell id="aq_8hHZu7omb50Sgb_1N-27" value="触点项" style="rounded=1;whiteSpace=wrap;html=1;fontFamily=Lucida Console;fontSize=14;" vertex="1" parent="1">
          <mxGeometry x="785" y="323" width="110" height="20" as="geometry" />
        </mxCell>
        <mxCell id="aq_8hHZu7omb50Sgb_1N-28" value="地板项" style="rounded=1;whiteSpace=wrap;html=1;fontFamily=Lucida Console;fontSize=14;" vertex="1" parent="1">
          <mxGeometry x="785" y="353" width="110" height="20" as="geometry" />
        </mxCell>
        <mxCell id="aq_8hHZu7omb50Sgb_1N-30" value="Discriminator" style="rounded=1;whiteSpace=wrap;html=1;fontFamily=Lucida Console;fontSize=14;" vertex="1" parent="1">
          <mxGeometry x="620" y="520" width="120" height="60" as="geometry" />
        </mxCell>
        <mxCell id="aq_8hHZu7omb50Sgb_1N-31" value="" style="endArrow=classic;html=1;fontFamily=Lucida Console;entryX=0.5;entryY=0;entryDx=0;entryDy=0;fontSize=14;" edge="1" parent="1" target="aq_8hHZu7omb50Sgb_1N-30">
          <mxGeometry width="50" height="50" relative="1" as="geometry">
            <mxPoint x="680" y="380" as="sourcePoint" />
            <mxPoint x="450" y="550" as="targetPoint" />
          </mxGeometry>
        </mxCell>
        <mxCell id="aq_8hHZu7omb50Sgb_1N-33" value="" style="endArrow=classic;html=1;fontFamily=Lucida Console;exitX=1;exitY=0.5;exitDx=0;exitDy=0;entryX=0.5;entryY=1;entryDx=0;entryDy=0;fontSize=14;" edge="1" parent="1" source="aq_8hHZu7omb50Sgb_1N-30" target="aq_8hHZu7omb50Sgb_1N-22">
          <mxGeometry width="50" height="50" relative="1" as="geometry">
            <mxPoint x="750" y="580" as="sourcePoint" />
            <mxPoint x="800" y="530" as="targetPoint" />
            <Array as="points">
              <mxPoint x="840" y="550" />
            </Array>
          </mxGeometry>
        </mxCell>
        <mxCell id="aq_8hHZu7omb50Sgb_1N-35" value="Training" style="rounded=1;whiteSpace=wrap;html=1;fontFamily=Lucida Console;fontSize=20;" vertex="1" parent="1">
          <mxGeometry x="40" y="600" width="960" height="80" as="geometry" />
        </mxCell>
        <mxCell id="aq_8hHZu7omb50Sgb_1N-36" value="Ground Truth" style="text;html=1;strokeColor=none;fillColor=none;align=center;verticalAlign=middle;whiteSpace=wrap;rounded=0;fontFamily=Lucida Console;fontSize=14;" vertex="1" parent="1">
          <mxGeometry x="260" y="90" width="170" height="40" as="geometry" />
        </mxCell>
      </root>
    </mxGraphModel>
  </diagram>
</mxfile>
